<?xml version="1.0" standalone="no"?>
<!DOCTYPE svg PUBLIC "-//W3C//DTD SVG 20010904//EN"
 "http://www.w3.org/TR/2001/REC-SVG-20010904/DTD/svg10.dtd">
<svg version="1.0" xmlns="http://www.w3.org/2000/svg"
 width="1200.000000pt" height="1200.000000pt" viewBox="0 0 1200.000000 1200.000000"
 preserveAspectRatio="xMidYMid meet">
<metadata>
Created by potrace 1.15, written by Peter Selinger 2001-2017
</metadata>
<g transform="translate(0.000000,1200.000000) scale(0.100000,-0.100000)"
fill="#000000" stroke="none">
<path d="M1200 6000 l0 -960 4800 0 4800 0 0 960 0 960 -4800 0 -4800 0 0
-960z m9360 0 l0 -720 -4560 0 -4560 0 0 720 0 720 4560 0 4560 0 0 -720z"/>
<path d="M3528 6307 c-42 -35 -48 -59 -48 -180 0 -101 2 -117 21 -141 42 -53
58 -56 319 -56 l240 0 0 -90 0 -90 -234 0 -235 0 -3 28 c-3 25 -7 27 -55 30
l-53 3 0 -43 c1 -52 17 -83 56 -109 27 -17 49 -19 289 -19 345 0 344 0 345
203 l0 117 -34 38 -34 37 -256 3 -256 3 0 89 0 90 234 0 235 0 3 -27 c3 -26 7
-28 56 -31 l52 -3 0 41 c0 23 -7 54 -15 70 -29 57 -48 60 -337 60 -258 0 -264
-1 -290 -23z"/>
<path d="M4360 5985 l0 -345 55 0 55 0 0 120 0 120 238 0 c265 0 286 4 329 69
21 31 23 46 23 153 0 131 -11 171 -55 206 -27 21 -35 22 -336 22 l-309 0 0
-345z m588 123 l-3 -113 -235 0 -235 0 -3 113 -3 112 241 0 241 0 -3 -112z"/>
<path d="M5275 6308 c-52 -41 -55 -62 -55 -378 l0 -290 55 0 55 0 0 120 0 120
240 0 240 0 0 -120 0 -120 55 0 56 0 -3 311 -3 311 -37 34 -38 34 -269 0
c-260 0 -269 -1 -296 -22z m535 -203 l0 -115 -240 0 -240 0 0 115 0 115 240 0
240 0 0 -115z"/>
<path d="M6166 6309 c-53 -42 -56 -57 -56 -324 0 -267 3 -282 56 -324 26 -20
37 -21 336 -21 l309 0 -3 53 -3 52 -292 3 -293 2 0 235 0 235 293 2 292 3 3
53 3 52 -309 0 c-299 0 -310 -1 -336 -21z"/>
<path d="M7000 5985 l0 -345 320 0 320 0 0 55 0 55 -265 0 -265 0 0 90 0 90
215 0 215 0 0 55 0 55 -215 0 -215 0 0 90 0 90 265 0 265 0 0 55 0 55 -320 0
-320 0 0 -345z"/>
<path d="M7840 5985 l0 -345 55 0 55 0 0 120 0 120 129 0 128 0 99 -120 99
-120 68 0 c37 0 67 3 67 8 -1 4 -43 57 -95 117 l-94 110 51 7 c107 13 138 64
138 226 0 131 -13 172 -62 202 -31 19 -50 20 -335 20 l-303 0 0 -345z m588
123 c3 -105 2 -108 -20 -113 -13 -3 -120 -4 -238 -3 l-215 3 -3 113 -3 112
238 -2 238 -3 3 -107z"/>
</g>
</svg>
